<?xml version="1.0" standalone="no"?>
<!DOCTYPE svg PUBLIC "-//W3C//DTD SVG 1.1//EN" "http://www.w3.org/Graphics/SVG/1.1/DTD/svg11.dtd" >
<svg xmlns="http://www.w3.org/2000/svg">
<metadata>Generated by IcoMoon</metadata>
<defs>
<font id="icons" horiz-adv-x="1024">
<font-face units-per-em="1024" ascent="960" descent="-64" />
<missing-glyph horiz-adv-x="1024" />
<glyph unicode="&#x20;" d="" horiz-adv-x="512" />
<glyph unicode="&#x42;" d="M163.46 120.238c20.774 4.154 41.556 8.312 62.33 12.466 36.442 52.088 49.278 139.136 132.972 145.438 31.090-28.082 58.838-55.682 95.574-78.952-1.386-4.154-2.77-8.312-4.156-12.466-90.318-123.704-133.068-120.068-286.72-66.486zM392.006 282.298c24.93 45.704 49.866 91.422 74.796 137.128 4.154-1.384 8.312-2.77 12.466-4.156 29.084-24.93 58.178-49.866 87.262-74.796-16.62-18.004-33.244-36.016-49.864-54.020-19.39-16.62-38.786-33.244-58.176-49.864-32.924 7.428-44.314 28.262-66.484 45.708zM466.802 448.512c49.512 66.284 298.432 330.346 382.294 336.586 1.384-4.154 2.77-8.312 4.156-12.466 18.43-47.262-27.858-81.31-45.71-108.040-69.25-103.874-138.52-207.778-207.768-311.652-5.54 5.54-11.082 11.082-16.622 16.622-38.78 26.314-77.57 52.636-116.35 78.95z" />
<glyph unicode="&#x44;" d="M924 850.090l-213.258-764.464-271.84 257.684 267.874 282.69-359.060-248.148-247.716 60.202 824 412.036zM405.984 294.944v-249.034l117.476 135.854-117.476 113.18z" />
<glyph unicode="&#x46;" d="M814.904 486.006c-28.752 18.484-57.512 36.972-86.264 55.456-133.766 56.476-304.352 44.752-428.242-107.83-15.558 93.77-54.87 155.024-141.72 215.662 0-145.814 0-291.672 0-437.486 91.992 65.23 127.292 130.024 141.72 215.662 151.558-188.246 398.934-190.51 560.72 0-15.404 19.51-30.81 39.026-46.214 58.536z" />
<glyph unicode="&#x48;" d="M501.244 764c118.956-103.608 237.948-207.246 356.904-310.852-11.512-13.43-23.028-26.866-34.54-40.296-11.512 11.512-23.028 23.028-34.54 34.54-94.014 80.584-188.056 161.19-282.070 241.774-11.512-11.512-23.028-23.028-34.54-34.54-92.096-80.584-184.218-161.19-276.314-241.774-11.512 9.594-23.028 19.19-34.54 28.782-1.918 3.838-3.838 7.676-5.756 11.514 3.838 5.756 7.676 11.514 11.514 17.27 111.284 97.85 222.6 195.73 333.882 293.582zM259.47 717.948c30.698 0 61.406 0 92.104 0 0-17.268 0-34.54 0-51.808-28.78-24.942-57.568-49.892-86.348-74.834-1.918 0-3.838 0-5.756 0 0 42.208 0 84.432 0 126.642zM581.834 102c-1.918 49.884-3.838 99.784-5.756 149.67-47.966-1.918-95.946-3.838-143.914-5.756 0-47.966 0-95.946 0-143.914-57.56 1.918-115.136 3.838-172.696 5.756 0 107.444 0 214.92 0 322.366 82.502 70.99 165.028 142.002 247.53 212.992 7.674-7.674 15.352-15.352 23.026-23.026 74.828-65.234 149.678-130.488 224.504-195.722-1.918-107.444-3.838-214.92-5.756-322.366-55.638 0-111.296 0-166.938 0z" />
<glyph unicode="&#x49;" d="M425.102 448.010c0 49.1 39.798 88.886 88.898 88.886 49.098 0 88.906-39.788 88.906-88.886 0-49.094-39.808-88.908-88.906-88.908-49.1 0-88.898 39.814-88.898 88.908zM656.226 448.010c0-78.566-63.676-142.24-142.226-142.24s-142.226 63.674-142.226 142.24c0 12.292 1.738 24.184 4.67 35.566h-40.246v-195.586c0-9.808 7.962-17.762 17.796-17.762h320.016c9.834 0 17.798 7.954 17.798 17.762v195.586h-40.246c2.934-11.382 4.664-23.274 4.664-35.566zM674.010 625.8h-53.326c-9.822 0-17.778-7.962-17.778-17.78v-53.344c0-9.812 7.956-17.782 17.778-17.782h53.326c9.834 0 17.798 7.968 17.798 17.782v53.344c0 9.818-7.964 17.78-17.798 17.78zM924 448c0-227.542-184.458-412-412-412s-412 184.458-412 412 184.458 412 412 412 412-184.458 412-412zM745.132 625.8c0 29.458-23.872 53.33-53.324 53.33h-355.61c-29.448 0-53.328-23.872-53.328-53.33v-355.572c0-29.472 23.88-53.36 53.328-53.36h355.612c29.454 0 53.324 23.886 53.324 53.36v355.572z" />
<glyph unicode="&#x4b;" d="M512.834 860c-227.542 0-412-184.458-412-412s184.458-412 412-412 412 184.458 412 412-184.458 412-412 412zM634.77 617.616c0 0-41.208 0-57.578 0-20.324 0-24.56-8.326-24.56-29.356 0-17.5 0-50.808 0-50.808h82.138l-7.902-89.192h-74.236v-266.454h-106.4v265.324h-55.332v90.32h55.332c0 0 0 12.986 0 71.13 0 66.758 35.698 101.614 114.874 101.614 12.968 0 73.666 0 73.666 0v-92.578z" />
<glyph unicode="&#x4c;" d="M771.702 631.99c0 0 41.328 45.296 3.968 82.82-37.526 37.36-82.82-3.968-82.82-3.968-210.938 104.476-376.412-68.934-376.412-68.934s-173.412-165.64-68.936-376.576c0 0-41.328-45.294-3.968-82.82 37.526-37.524 82.82 3.968 82.82 3.968 210.938-104.476 376.412 68.936 376.412 68.936s173.412 165.64 68.934 376.576v0z" />
<glyph unicode="&#x50;" d="M338.226 727.76c99.776 2.594 371.878 32.39 396.748-42.008-146.238 0-292.518 0-438.756 0 4.668 9.334 9.336 18.672 14.002 28.006 9.336 4.666 18.672 9.334 28.006 14.002zM744.31 405.694c0-34.226 0-68.462 0-102.688-57.562-57.562-115.14-115.14-172.702-172.702-98.732-3.080-248.89-21.902-280.058 46.676-12.74 40.312-13.090 143.914 14.002 163.366 4.668-1.556 9.336-3.112 14.002-4.668 4.668-52.894 9.336-105.804 14.002-158.7 53.048-14.396 137.688-9.904 205.376-9.336-3.11 65.048-8.118 135.858 32.674 158.7 27.056 22.334 95.678 8.98 135.362 18.67 0.972 48.296-0.3 99.984-9.336 135.36-63.348 40.818-297.728 31.332-387.412 14.002-6.222-9.334-12.448-18.672-18.67-28.006-1.556-20.224-3.112-40.454-4.668-60.68-29.558 1.556-59.126 3.112-88.684 4.668-43.148 31.918-42.954 157.748-28.006 228.714 38.332 48.434 576.536 47.286 672.138 23.338 6.222-9.334 12.448-18.672 18.67-28.006 0-65.34 0-130.7 0-196.040-10.89-9.334-21.784-18.672-32.674-28.006-28.002-1.55-56.014-3.106-84.016-4.662zM221.536 625.072c-4.668-7.778-9.336-15.56-14.002-23.338 6.222-7.778 12.448-15.56 18.67-23.338 6.222 1.556 12.448 3.112 18.67 4.668 9.59 6.326 7.512 5.228 14.002 14.002-4.668 9.334-9.336 18.672-14.002 28.006-7.778 0-15.56 0-23.338 0zM300.886 625.072c-4.668-4.668-9.336-9.336-14.002-14.002 1.556-6.222 3.112-12.448 4.668-18.67 3.112-4.668 6.224-9.336 9.336-14.002 7.778 0 15.56 0 23.338 0 3.112 3.112 6.224 6.224 9.336 9.336-1.004 21.066-3.304 25.162-9.336 37.34-7.78-0.002-15.562-0.002-23.34-0.002zM366.232 424.364c49.782-1.556 99.58-3.112 149.364-4.668 0-1.556 0-3.112 0-4.668-1.556-3.112-3.112-6.224-4.668-9.336-42.312-1.506-123.764-9.794-149.364 9.336 1.556 3.112 3.112 6.224 4.668 9.336zM366.232 373.020c45.768 1.382 119.26 7.742 149.364-9.336-1.556-3.112-3.112-6.224-4.668-9.336-42.312-1.506-123.764-9.794-149.364 9.336 1.556 3.112 3.112 6.226 4.668 9.336zM366.232 321.676c47.766 1.284 116.616 6.092 149.364-9.336-3.112-4.668-6.224-9.336-9.336-14.002-46.824-3.468-142.85-13.134-140.028 23.338zM599.614 303.006c-22.904-25.044-25.242-55.42-23.338-107.356 1.556 0 3.112 0 4.668 0 4.668 3.112 9.336 6.224 14.002 9.336 29.558 32.67 59.126 65.35 88.684 98.020-28.002 0-56.014 0-84.016 0z" />
<glyph unicode="&#x53;" d="M898.294 168.038l-193.496 193.496c29.184 47.964 45.978 104.182 45.978 164.454 0 174.898-151.592 326.492-326.554 326.492-174.9 0-316.724-141.824-316.724-316.722 0-174.94 151.552-326.554 326.492-326.554 58.164 0 112.64 15.77 159.498 43.172l194.52-194.56c19.108-19.046 49.93-19.046 68.914 0l48.292 48.23c18.986 19.046 12.082 43.008-6.922 61.994zM205.004 535.758c0 121.098 98.14 219.3 219.238 219.3 121.138 0 229.070-107.93 229.070-229.068s-98.14-219.3-219.3-219.3-229.028 107.93-229.028 229.068z" />
<glyph unicode="&#x54;" d="M512.834 860c-227.542 0-412-184.458-412-412s184.458-412 412-412 412 184.458 412 412-184.458 412-412 412zM672.426 224.234c-21.070-9.918-40.148-16.856-57.214-20.848-17.074-3.976-35.542-5.968-55.388-5.968-22.528 0-42.444 2.848-59.754 8.526-17.326 5.692-32.1 13.794-44.314 24.326-12.228 10.532-20.71 21.73-25.426 33.59-4.728 11.854-7.080 29.036-7.080 51.554v172.83h-54.006v70.262c19.306 6.284 35.832 15.298 49.596 27.028 13.77 11.736 24.81 25.816 33.132 42.274 8.328 16.448 14.062 37.362 17.206 62.776h69.878v-124.92h117.108v-77.418h-117.108v-126.49c0-28.588 1.506-46.946 4.538-55.062 3.032-8.12 8.668-14.606 16.902-19.438 10.898-6.554 23.38-9.82 37.43-9.82 24.956 0 49.792 8.122 74.502 24.356v-77.558z" />
<glyph unicode="&#x58;" d="M876.786 210.81l-237.272 237.236 237.242 237.258-127.566 127.482-237.2-237.236-237.24 237.206-127.536-127.46 237.278-237.262-237.248-237.284 127.46-127.536 237.3 237.318 237.3-237.288z" />
<glyph unicode="&#x61;" d="M792.74 521.564c-20.828-21.402-240.394-230.564-240.394-230.564-11.162-11.428-25.764-17.1-40.346-17.1-14.644 0-29.226 5.674-40.346 17.1 0 0-219.546 209.142-240.436 230.564-20.828 21.402-22.262 59.862 0 82.74 22.324 22.834 53.412 24.618 80.69 0l200.090-191.898 200.028 191.836c27.342 24.616 58.47 22.836 80.692 0 22.322-22.836 20.952-61.338 0-82.698z" />
<glyph unicode="&#x62;" d="M100 830.018v-587.364h129.002v-176.672l263.956 176.672h431.042v587.364h-824zM512 392.866h-268.318v60h268.318v-60zM783.682 512.866h-540v60h540v-60zM783.682 632.866h-540v60h540v-60z" />
<glyph unicode="&#x63;" d="M747.058 796.666c-18.184 0-35.628 7.196-48.528 20.016l-43.53 43.318h-286l-43.534-43.316c-12.896-12.822-30.342-20.018-48.526-20.018h-117.94v-760.666h706v760.666h-117.942zM784 117h-546v600h124.666l49.834-50h202.5l50.5 50h118.5v-600zM325.748 405.148l32.712 30.242c38.266-18.516 62.532-32.604 105.542-63.262 80.852 91.754 134.278 138.304 233.584 200.090l10.644-24.484c-81.894-71.468-141.874-151.070-228.238-305.954-53.27 62.738-88.822 102.728-154.244 163.368z" />
<glyph unicode="&#x64;" d="M904.132 521.534l-94.172-203.19-30.402 75.47c-142.644-73.458-185.46-184.376-194.766-357.814l-143.778 0.562c11.234 220.426 71.446 386.366 284.636 490.942l-30.672 76.158 209.154-82.128zM474.812 391.524c-41.512 53.472-98.024 99.46-174.378 137.668l31.292 75.906-211.858-78.418 94.594-205.976 31.016 75.226c82.476-43.3 131.196-98.966 159.118-171.994 15.004 60.694 37.338 116.27 70.216 167.588z" />
<glyph unicode="&#x65;" d="M231.26 374.436c20.828 21.402 240.394 230.564 240.394 230.564 11.162 11.428 25.764 17.1 40.346 17.1 14.644 0 29.226-5.674 40.346-17.1 0 0 219.546-209.142 240.434-230.564 20.828-21.402 22.262-59.862 0-82.74-22.322-22.836-53.412-24.616-80.692 0l-200.090 191.898-200.028-191.836c-27.342-24.616-58.47-22.836-80.692 0-22.324 22.836-20.95 61.338 0 82.698z" />
<glyph unicode="&#x66;" d="M533.42 637.89l-68.376-34.334-111.532 222.11 68.376 34.334 111.532-222.11zM686.118 333.802l-68.376-34.334 111.53-222.116 68.378 34.338-111.532 222.112zM425.372 579.606l-113.24 225.504c-45.882-24.514-175.532-81.408 15.12-461.080 191.522-381.406 310.138-310.812 360.688-287.324l-113.144 225.328c-72.672-35.962-220.698 258.958-149.424 297.572z" />
<glyph unicode="&#x68;" d="M387.34 472.246c0 28.35 22.984 51.336 51.338 51.336 28.348 0 51.332-22.986 51.332-51.336 0-28.354-22.984-51.336-51.332-51.336-28.354 0-51.338 22.982-51.338 51.336zM647.724 470.602l-85.1-120.91-46.246 47.668-130.492-148.268h407.896l-146.058 221.51zM790.762 643.91v131.128h-690.762v-522.93h131.224v-131.144h692.776v522.946h-133.238zM167.258 319.366v388.41h556.244v-63.868h-492.278v-324.544h-63.966zM856.742 188.224h-558.26v388.426h558.26v-388.426z" />
<glyph unicode="&#x6c;" d="M828.424 571.804h-104.082v94.264l22.804 77.836v89.538h-145.776c0 0-37.384-82.182-50.55-113.944-43.338-104.566-88.116-212.608-180.606-230.586v46.34h-270.214v-456.342h270.214v39.436h91.662l101.872-55.786h247.868l112.384 100.45v346.554l-95.576 62.24zM579.74 120.674l-98.988 55.79-110.298-0.116v253.664c0.918 0.124 1.93 0.266 3.016 0.43 128.432 19.234 182.942 150.76 231.036 266.806 9.024 21.772 28.186 65.358 33.792 78.080h50.732v-29.71l-22.8-77.838v-154.090h146.752l52.902-33.758v-295.18l-73.13-64.076h-213.014z" />
<glyph unicode="&#x6d;" d="M826.2 670.6c0 0 50 54.8 4.8 100.2-45.4 45.2-100.2-4.8-100.2-4.8-255.2 126.4-455.4-83.4-455.4-83.4s-209.8-200.4-83.4-455.6c0 0-50-54.8-4.8-100.2 45.4-45.4 100.2 4.8 100.2 4.8 255.2-126.4 455.4 83.4 455.4 83.4s209.8 200.4 83.4 455.6v0z" />
<glyph unicode="&#x6e;" d="M379.6 816.926l-90.776-94.622 262.25-273.356-259.732-270.728 93.308-97.246 350.508 365.35-355.558 370.602z" />
<glyph unicode="&#x6f;" d="M505.636 77.068c-207.040 0-375.478 168.438-375.478 375.478s168.438 375.478 375.478 375.478c207.038 0 375.478-168.438 375.478-375.478 0-207.038-168.438-375.478-375.478-375.478zM505.636 698.926c-135.854 0-246.378-110.526-246.378-246.378s110.526-246.38 246.38-246.38 246.38 110.526 246.38 246.38-110.526 246.38-246.38 246.38z" />
<glyph unicode="&#x70;" d="M686.852 774c-23.712-25.404-47.43-50.818-71.14-76.222 25.404-23.712 50.818-47.43 76.222-71.14 30.486-30.486 60.98-60.98 91.466-91.466 23.712 25.404 47.43 50.818 71.14 76.222-55.89 54.196-111.798 108.408-167.688 162.606zM163.46 88c69.44 11.856 138.9 23.714 208.34 35.57 123.636 125.33 247.312 250.698 370.948 376.030-55.89 54.198-111.798 108.41-167.688 162.608-149.762-194.77-370.336-264.468-411.6-574.208zM656.362 499.6c-110.088-110.088-220.208-220.208-330.296-330.296-6.774 6.774-13.552 13.552-20.326 20.326 110.088 110.088 220.208 220.208 330.296 330.296 6.776-6.774 13.552-13.552 20.326-20.326zM265.088 225.2c-5.080 6.774-10.164 13.552-15.244 20.326 108.394 110.088 216.82 220.208 325.214 330.296 8.468-6.774 16.94-13.552 25.408-20.326-111.78-110.088-223.596-220.208-335.378-330.296z" />
<glyph unicode="&#x71;" d="M379.6 816.926l-90.776-94.622 262.25-273.356-259.732-270.728 93.308-97.246 350.508 365.35-355.558 370.602z" />
<glyph unicode="&#x72;" d="M644.382 80.974l90.776 94.622-262.248 273.356 259.732 270.728-93.308 97.246-350.508-365.35 355.556-370.602z" />
<glyph unicode="&#x73;" d="M844.968 557.292c-160.15 24.106-285.64-33.492-442.002 8.782-47.85 12.936-104.352 46.128-149.284 79.034-12.684 14.634-25.37 29.274-38.054 43.908-12.164 0.078-13.118-2.066-26.344-14.636-21.824-121.124-67.342-311.308 11.708-427.366 0.976-0.976 1.952-1.952 2.928-2.928 36.782 12.692 38.856 45.652 81.96 70.252 101.002 57.64 209.048 79.946 310.28 64.398 11.708-9.756 23.418-19.516 35.126-29.272-4.828-17.036-13.172-21.7-32.198-38.054 5.854-9.756 11.71-19.516 17.564-29.272-28.15-46.51-26.872-67.316-64.398-99.524 14.91-20.806 36.64-46.164 58.544-52.688 3.902-1.952 7.806-3.904 11.708-5.854 39.12 58.818 58.94 150.384 122.94 175.63 2.926 16.586 5.854 33.176 8.782 49.762 0 3.902 0 7.806 0 11.708 17.976-0.532 34.572-10.482 55.616-14.636 13.658 7.806 27.322 15.612 40.98 23.418 8.008 49.216 20.738 140.356-5.856 187.338z" />
<glyph unicode="&#x74;" d="M512 860c-227.542 0-412-184.458-412-412s184.458-412 412-412 412 184.458 412 412-184.458 412-412 412zM719.198 518.988c6.042-134.398-94.192-284.248-271.604-284.248-53.962 0-104.192 15.822-146.476 42.932 50.694-5.974 101.292 8.088 141.468 39.572-41.814 0.772-77.108 28.396-89.264 66.362 14.972-2.864 29.702-2.026 43.15 1.632-45.952 9.234-77.678 50.634-76.642 94.906 12.88-7.16 27.62-11.458 43.284-11.954-42.556 28.442-54.606 84.636-29.57 127.578 47.126-57.812 117.54-95.856 196.956-99.84-13.938 59.772 31.404 117.334 93.084 117.334 27.484 0 52.32-11.604 69.748-30.176 21.768 4.286 42.216 12.238 60.682 23.188-7.134-22.314-22.288-41.042-42.016-52.866 19.33 2.306 37.748 7.444 54.882 15.046-12.81-19.164-29.010-35.996-47.682-49.466z" />
<glyph unicode="&#x75;" d="M923.936 241.284h-159.874c-0.008 173.996-86.98 91.296-86.98 243.77 0 55.040 36.034 84.91 82.3 84.91 68.362 0 115.938-65.27 51.202-187.32-21.268-40.098 22.646-49.624 69.824-60.508 47.156-10.876 43.528-35.74 43.528-80.852zM143.592 322.134c47.178 10.882 91.092 20.41 69.824 60.508-64.736 122.050-17.16 187.32 51.202 187.32 46.268 0 82.3-29.872 82.3-84.91 0-152.472-86.972-69.774-86.98-243.77h-159.874c0 45.114-3.628 69.978 43.528 80.852zM664.23 342.982c-59.34 13.692-114.578 25.676-87.826 76.11 81.43 153.524 21.584 235.624-64.404 235.624-87.684 0-146.054-85.25-64.402-235.624 27.552-50.742-29.766-62.714-87.83-76.11-59.316-13.68-54.754-44.954-54.754-101.7h413.97c0 56.748 4.564 88.020-54.754 101.7z" />
<glyph unicode="&#x76;" d="M609.128 349.864h-196.272v196.272h196.272v-196.272zM412.858 860v-196.15h196.272v196.15h-196.272zM100 349.864h195.142v196.272h-195.142v-196.272zM726.844 663.85h197.156v196.15h-197.156v-196.15zM609.128 36v196.148h-196.272v-196.148h196.272zM295.142 232.148h-195.142v-196.148h195.142v196.148zM924 546.134h-197.156v-196.272h197.156v196.272zM726.844 232.148v-196.148h197.156v196.148h-197.156zM295.142 663.85v196.15h-195.142v-196.15h195.142z" />
</font>
</defs>
</svg>
