<?xml version="1.0" encoding="utf-8"?>
<!-- Generator: Adobe Illustrator 17.0.0, SVG Export Plug-In . SVG Version: 6.00 Build 0)  -->
<!DOCTYPE svg PUBLIC "-//W3C//DTD SVG 1.1//EN" "http://www.w3.org/Graphics/SVG/1.1/DTD/svg11.dtd">
<svg version="1.1" id="Layer_1" xmlns="http://www.w3.org/2000/svg" xmlns:xlink="http://www.w3.org/1999/xlink" x="0px" y="0px"
	 width="512px" height="482.5px" viewBox="0 0 512 482.5" enable-background="new 0 0 512 482.5" xml:space="preserve">
<path fill="#FFFFFF" d="M256,0C114.615,0,0,108.011,0,241.25S114.615,482.5,256,482.5s256-108.011,256-241.25S397.385,0,256,0z
	 M336.521,129.452l-2.155,13.471H178.15l-2.155-13.471H336.521z M348.51,153.969l-2.155,16.165H164.679l-2.155-16.165H348.51z
	 M360.848,181.863l-7.461,95.084h-21.82l5.033-74.07H174.411l5.572,74.07h-22.025l-7.255-95.084H360.848z M239.043,244.569
	l12.03,11.082l22.137-28.106l36.383,48.797H207.256L239.043,244.569z M205.48,227.16c0-6.586,5.978-11.93,13.349-11.93
	c7.382,0,13.357,5.345,13.357,11.93c0,6.595-5.975,11.933-13.357,11.933C211.459,239.093,205.48,233.756,205.48,227.16z
	 M358.379,343.048H153.083L145,290.418h0.032h78.528l14.348,14.593h36.674l14.306-14.593h78.079H367L358.379,343.048z"/>
</svg>
